<svg width="24" height="24" viewBox="0 0 24 24" fill="none" xmlns="http://www.w3.org/2000/svg">
<path fill-rule="evenodd" clip-rule="evenodd" d="M1.60623 6.08022C1.72698 6.02853 1.85673 6.00112 1.98807 5.99958C2.11941 5.99804 2.24976 6.02238 2.37169 6.07123C2.49362 6.12008 2.60473 6.19246 2.69868 6.28426C2.79263 6.37606 2.86757 6.48546 2.91923 6.60622L2.00023 7.00022L2.92023 6.60622L2.92323 6.61422L2.94423 6.65922L3.03823 6.85322C3.12423 7.02522 3.25723 7.27722 3.43823 7.58222C3.91549 8.384 4.4752 9.13373 5.10823 9.81922C5.29796 10.0233 5.49475 10.2208 5.69823 10.4112C7.18023 11.8002 9.25123 13.0002 12.0002 13.0002C13.102 13.0053 14.1947 12.801 15.2202 12.3982C16.4472 11.9152 17.4742 11.1882 18.3162 10.4002C19.4423 9.33169 20.3679 8.07011 21.0492 6.67522L21.0762 6.61722L21.0812 6.60622C21.1882 6.36623 21.3853 6.17798 21.63 6.08217C21.8746 5.98636 22.1472 5.99069 22.3887 6.09423C22.6301 6.19776 22.8212 6.39218 22.9205 6.63544C23.0198 6.87871 23.0193 7.15128 22.9192 7.39422L22.9172 7.39922L22.9132 7.40722L22.9022 7.43322L22.8622 7.52022C22.6401 7.9828 22.3927 8.43281 22.1212 8.86822C21.6214 9.67117 21.0486 10.4264 20.4102 11.1242L21.2072 11.9212C21.3949 12.1087 21.5003 12.3631 21.5004 12.6284C21.5005 12.8936 21.3952 13.1481 21.2077 13.3357C21.0202 13.5234 20.7659 13.6288 20.5006 13.6289C20.2353 13.629 19.9809 13.5237 19.7932 13.3362L18.9532 12.4962C18.3621 12.974 17.7269 13.3946 17.0562 13.7522L17.8382 14.9542C17.912 15.0642 17.9632 15.1878 17.9888 15.3178C18.0144 15.4478 18.0139 15.5815 17.9874 15.7113C17.9609 15.8411 17.9089 15.9643 17.8343 16.0738C17.7598 16.1833 17.6642 16.277 17.5532 16.3492C17.4422 16.4215 17.3179 16.471 17.1876 16.4948C17.0573 16.5187 16.9236 16.5164 16.7942 16.4881C16.6647 16.4598 16.5422 16.4061 16.4338 16.3301C16.3253 16.254 16.233 16.1572 16.1622 16.0452L15.1762 14.5312C14.4972 14.7392 13.7722 14.8862 13.0002 14.9552V16.5002C13.0002 16.7654 12.8949 17.0198 12.7073 17.2073C12.5198 17.3949 12.2654 17.5002 12.0002 17.5002C11.735 17.5002 11.4807 17.3949 11.2931 17.2073C11.1056 17.0198 11.0002 16.7654 11.0002 16.5002V14.9562C10.2252 14.8862 9.50023 14.7392 8.82323 14.5312L7.83823 16.0452C7.69033 16.2597 7.46457 16.408 7.20898 16.4586C6.9534 16.5091 6.68818 16.4579 6.46977 16.3159C6.25136 16.1738 6.09701 15.9521 6.03958 15.698C5.98214 15.4439 6.02614 15.1774 6.16223 14.9552L6.94423 13.7522C6.24423 13.3822 5.61223 12.9522 5.04723 12.4952L4.20723 13.3352C4.01863 13.5174 3.76602 13.6182 3.50383 13.6159C3.24163 13.6136 2.99082 13.5085 2.80541 13.323C2.62 13.1376 2.51483 12.8868 2.51256 12.6246C2.51028 12.3624 2.61107 12.1098 2.79323 11.9212L3.59023 11.1242C2.88277 10.3504 2.25619 9.50636 1.72023 8.60522C1.50678 8.24524 1.30958 7.87587 1.12923 7.49822L1.09623 7.42622L1.08623 7.40522L1.08423 7.39822L1.08323 7.39622C1.08023 7.39622 1.08023 7.39422 2.00023 7.00022L1.08123 7.39522C1.02935 7.27448 1.00177 7.1447 1.00008 7.0133C0.998392 6.88189 1.02262 6.75144 1.07138 6.62941C1.12014 6.50737 1.19247 6.39614 1.28424 6.30208C1.37602 6.20802 1.48543 6.13197 1.60623 6.08022Z" fill="black"/>
</svg>
