<svg width="24" height="24" viewBox="0 0 24 24" fill="none" xmlns="http://www.w3.org/2000/svg">
<path fill-rule="evenodd" clip-rule="evenodd" d="M11.9998 1C12.265 1 12.5194 1.10536 12.7069 1.29289C12.8945 1.48043 12.9998 1.73478 12.9998 2V4.4535C14.1253 4.543 15.2083 4.782 16.2268 5.1505L17.4858 2.9735C17.6187 2.74388 17.8373 2.57634 18.0935 2.50763C18.3498 2.43893 18.6229 2.47466 18.8528 2.607C18.9666 2.67247 19.0664 2.75975 19.1464 2.86383C19.2264 2.96792 19.285 3.08676 19.319 3.21356C19.353 3.34036 19.3617 3.47262 19.3445 3.60276C19.3273 3.73291 19.2846 3.85838 19.2188 3.972L18.0538 5.987C18.9247 6.47592 19.7316 7.07078 20.4563 7.758L22.0283 6.188C22.216 6.00043 22.4705 5.89498 22.7359 5.89479C23.0012 5.8946 23.2558 5.99969 23.4438 6.187C23.8348 6.577 23.8353 7.2095 23.4443 7.6L21.7888 9.2535C22.6281 10.3709 23.2576 11.6313 23.6468 12.9735C23.7847 13.4501 23.7847 13.9559 23.6468 14.4325C22.2188 19.3925 17.5298 23 11.9993 23C6.47182 23 1.78532 19.397 0.353316 14.441C0.215732 13.9643 0.215558 13.4583 0.352816 12.9815C0.740934 11.6396 1.36927 10.3791 2.20732 9.2615L0.552816 7.5995C0.460196 7.5065 0.386829 7.39615 0.336918 7.27476C0.287006 7.15336 0.26153 7.02332 0.261948 6.89207C0.262366 6.76081 0.28867 6.63093 0.339354 6.50986C0.390037 6.38879 0.464105 6.27891 0.557316 6.1865C0.745739 5.99981 1.0005 5.89544 1.26575 5.89629C1.53099 5.89713 1.78508 6.00311 1.97232 6.191L3.53882 7.764C4.26297 7.07653 5.06943 6.48134 5.93982 5.992L4.77932 3.9685C4.71391 3.85463 4.67162 3.72897 4.65487 3.59873C4.63812 3.46848 4.64724 3.33621 4.68171 3.2095C4.71617 3.08278 4.77531 2.96412 4.85572 2.8603C4.93613 2.75648 5.03624 2.66955 5.15032 2.6045C5.38074 2.47305 5.65388 2.43834 5.90986 2.50798C6.16583 2.57762 6.38375 2.74593 6.51582 2.976L7.76482 5.1545C8.80681 4.77673 9.89491 4.54094 10.9998 4.4535V2C10.9998 1.73478 11.1052 1.48043 11.2927 1.29289C11.4802 1.10536 11.7346 1 11.9998 1ZM11.9998 6.415C11.9878 6.415 11.976 6.41467 11.9643 6.414C10.4953 6.419 9.10282 6.726 7.84832 7.273L7.83232 7.2825C7.77039 7.31789 7.70485 7.34655 7.63682 7.368C6.38021 7.94894 5.25645 8.78202 4.33532 9.8155C4.31532 9.8405 4.29365 9.86483 4.27032 9.8885C3.34658 10.9438 2.66527 12.1886 2.27432 13.5355C2.24126 13.6498 2.24126 13.7712 2.27432 13.8855C3.45582 17.972 7.34732 21 11.9998 21C16.6543 21 20.5478 17.9675 21.7258 13.879C21.7591 13.7644 21.7591 13.6426 21.7258 13.528C21.3385 12.1985 20.6682 10.9685 19.7608 9.9225C19.7099 9.87539 19.6639 9.82311 19.6238 9.7665C18.6969 8.74017 17.5691 7.91513 16.3103 7.3425C16.2681 7.32695 16.227 7.30858 16.1873 7.2875C14.8675 6.70826 13.4412 6.41108 11.9998 6.415ZM6.61232 13.7065C6.61232 10.735 9.02482 8.328 11.9988 8.328C14.9728 8.328 17.3858 10.735 17.3858 13.7065C17.3858 16.678 14.9733 19.0845 11.9988 19.0845C9.02432 19.0845 6.61232 16.6775 6.61232 13.7065Z" fill="black"/>
</svg>
